<?xml version="1.0" encoding="UTF-8" standalone="no"?>
<!DOCTYPE svg PUBLIC "-//W3C//DTD SVG 1.1//EN" "http://www.w3.org/2000/svg">
<svg xmlns="http://www.w3.org/2000/svg" xmlns:xlink="http://www.w3.org/1999/xlink"
 width="1000" height="800" style="fill-opacity:1">
 <metadata><!--
  <rdf:RDF xmlns:rdf="http://www.w3.org/1999/02/22-rdf-syntax-ns#" xmlns:dc="http://purl.org/dc/elements/1.1/">
   <rdf:Description about="http://commons.wikimedia.org/image/Wikiversity-logo.svg">
     dc:title="Wikiversity logo (trademark)"
     dc:publisher="Wikimedia Foundation"
     dc:copyright="Copyright (c)2006 Wikimedia Foundation"
     dc:date="2007-09-20"
     dc:format="image/svg+xml"
     dc:language="en">
    <dc:creator>
     <rdf:Bag>
      <rdf:li>verdy_p@fr.wikipedia.org</rdf:li>
     </rdf:Bag>
    </dc:creator>
   </rdf:Description>
  </rdf:RDF>
 --></metadata>
 <defs>
  <linearGradient id="a" gradientUnits="userSpaceOnUse" x1="0" x2="0" y1="35" y2="322"><stop offset="0" style="stop-color:#069"/><stop offset="1" style="stop-color:#0080CE"/></linearGradient>
  <linearGradient id="b" xlink:href="#a" y1="339" y2="757"/>
 </defs>
 <path style="fill:url(#a)" d="
M329 88C372 53 416 35 484 35C431 56 395 89 368 114C352 106 341 99 329 88Z
M671 88C628 53 584 35 516 35C569 56 605 89 632 114C648 106 659 99 671 88Z
M491 144C455 144 423 136 386 121C423 87 451 68 491 50Z
M509 144C545 144 577 136 614 121C577 87 549 68 509 50Z
M357 128C341 120 327 111 314 100C289 123 268 145 253 173C270 188 284 198 305 208C319 179 334 154 357 128Z
M643 128C659 120 673 111 686 100C711 123 732 145 747 173C730 188 716 198 695 208C681 179 666 154 643 128Z
M491 162C452 162 408 151 373 136C349 162 332 189 320 216C379 245 433 258 491 258Z
M509 162C548 162 592 151 627 136C651 162 668 189 680 216C621 245 567 258 509 258Z
M243 189C260 204 277 215 298 227C288 249 282 277 278 304C257 293 236 280 217 266C222 237 231 211 243 189Z
M757 189C740 204 723 215 702 227C712 249 718 277 722 304C743 293 764 280 783 266C778 237 769 211 757 189Z
M491 322L325 322C314 318 305 316 294 311C298 280 304 259 313 234C368 263 426 276 491 276Z
M509 322L675 322C686 318 695 316 706 311C702 280 696 259 687 234C632 263 574 276 509 276Z
M210 322C210 309 211 298 213 285C236 301 247 307 276 322Z
M790 322C790 309 789 298 787 285C764 301 753 307 724 322Z
"/>
 <g style="fill:url(#b)">
  <rect x="32" y="339" width="936" height="31"/>
  <rect x="64" y="387" width="125" height="322"/>
  <rect x="313" y="387" width="125" height="322"/>
  <rect x="562" y="387" width="125" height="322"/>
  <rect x="811" y="387" width="125" height="322"/>
  <rect x="32" y="726" width="936" height="31"/>
 </g>
</svg>
